<svg viewBox="0 0 300 48" xmlns="http://www.w3.org/2000/svg">
	<g>
		<path
			d="M21.3709642,47.7344398 C20.0438589,47.7344398 18.9932496,47.3471685 18.2191049,46.5726141 C17.4449601,45.7980598 17.0578936,44.7690244 17.0578936,43.4854772 L17.0578936,7.63485477 L4.98129593,7.63485477 C2.32708537,7.63485477 1,6.46197577 1,4.11618257 C1,1.77038938 2.32708537,0.597510373 4.98129593,0.597510373 L37.6942774,0.597510373 C40.348488,0.597510373 41.6755734,1.77038938 41.6755734,4.11618257 C41.6755734,6.46197577 40.348488,7.63485477 37.6942774,7.63485477 L25.6176798,7.63485477 L25.6176798,43.4854772 C25.6176798,44.7690244 25.2306132,45.7980598 24.4564685,46.5726141 C23.6823237,47.3471685 22.6538326,47.7344398 21.3709642,47.7344398 Z M123.225785,42.0248963 C123.756627,42.8215807 124.022044,43.5961235 124.022044,44.3485477 C124.022044,45.3665334 123.612859,46.2074656 122.794478,46.8713693 C121.976096,47.535273 121.013959,47.8672199 119.908038,47.8672199 C119.200249,47.8672199 118.525647,47.7012465 117.884213,47.3692946 C117.242779,47.0373427 116.700885,46.5394224 116.258517,45.8755187 L107.433311,32.4647303 C106.548574,31.0484023 105.608555,30.0525617 104.613226,29.4771784 C103.617897,28.9017952 102.323989,28.6141079 100.731463,28.6141079 L94.2286796,28.6141079 L94.2286796,43.4854772 C94.2286796,44.8132846 93.8526721,45.8644498 93.1006457,46.6390041 C92.3486194,47.4135585 91.3311873,47.8008299 90.0483189,47.8008299 C88.7654504,47.8008299 87.7369593,47.4135585 86.9628145,46.6390041 C86.1886698,45.8644498 85.8016032,44.8132846 85.8016032,43.4854772 L85.8016032,4.6473029 C85.8016032,3.36375568 86.1665517,2.36791502 86.8964596,1.65975104 C87.6263675,0.951587054 88.6327406,0.597510373 89.915609,0.597510373 L106.504342,0.597510373 C111.812763,0.597510373 115.849314,1.78145427 118.614117,4.14937759 C121.37892,6.51730091 122.7613,9.93635386 122.7613,14.406639 C122.7613,18.0359794 121.732809,21.0124365 119.675796,23.3360996 C117.618783,25.6597627 114.710254,27.1535237 110.950122,27.8174274 C112.232991,28.1272491 113.361013,28.6804939 114.334224,29.4771784 C115.307435,30.2738629 116.258512,31.3803525 117.187486,32.7966805 L123.225785,42.0248963 Z M105.309953,22.0414938 C108.539243,22.0414938 110.905878,21.4329245 112.409931,20.2157676 C113.913984,18.9986108 114.665999,17.1286433 114.665999,14.6058091 C114.665999,12.0387147 113.913984,10.1687472 112.409931,8.99585062 C110.905878,7.82295402 108.539243,7.23651452 105.309953,7.23651452 L94.1623246,7.23651452 L94.1623246,22.0414938 L105.309953,22.0414938 Z M173.456468,0.265560166 C174.6951,0.265560166 175.690414,0.652831535 176.44244,1.42738589 C177.194467,2.20194025 177.570474,3.2309756 177.570474,4.51452282 L177.570474,43.8174274 C177.570474,45.0567144 177.216585,46.0304252 176.508795,46.7385892 C175.801006,47.4467532 174.872046,47.8008299 173.721888,47.8008299 C172.57173,47.8008299 171.664889,47.4467532 171.001336,46.7385892 C170.337783,46.0304252 170.006012,45.0567144 170.006012,43.8174274 L170.006012,16.4647303 L158.725674,37.8423237 C158.194831,38.8160491 157.619761,39.5352674 157.000445,40 C156.38113,40.4647326 155.651233,40.6970954 154.810733,40.6970954 C153.970233,40.6970954 153.240336,40.4757975 152.62102,40.033195 C152.001704,39.5905925 151.426634,38.8603094 150.895792,37.8423237 L139.549098,16.7966805 L139.549098,43.8174274 C139.549098,45.0124541 139.206268,45.9751001 138.520597,46.7053942 C137.834926,47.4356883 136.917025,47.8008299 135.766867,47.8008299 C134.616709,47.8008299 133.709867,47.4467532 133.046315,46.7385892 C132.382762,46.0304252 132.050991,45.0567144 132.050991,43.8174274 L132.050991,4.51452282 C132.050991,3.2309756 132.415939,2.20194025 133.145847,1.42738589 C133.875755,0.652831535 134.86001,0.265560166 136.098642,0.265560166 C137.823879,0.265560166 139.173082,1.21714124 140.146293,3.12033195 L154.877088,31.2033195 L169.541527,3.12033195 C170.514738,1.21714124 171.819705,0.265560166 173.456468,0.265560166 Z M191.969495,47.8008299 C190.686626,47.8008299 189.658135,47.4024936 188.88399,46.6058091 C188.109845,45.8091246 187.722779,44.7690244 187.722779,43.4854772 L187.722779,4.51452282 C187.722779,3.2309756 188.109845,2.20194025 188.88399,1.42738589 C189.658135,0.652831535 190.686626,0.265560166 191.969495,0.265560166 C193.2966,0.265560166 194.347209,0.652831535 195.121354,1.42738589 C195.895499,2.20194025 196.282565,3.2309756 196.282565,4.51452282 L196.282565,43.4854772 C196.282565,44.7690244 195.895499,45.8091246 195.121354,46.6058091 C194.347209,47.4024936 193.2966,47.8008299 191.969495,47.8008299 Z M241.802049,0.265560166 C243.04068,0.265560166 244.024935,0.652831535 244.754843,1.42738589 C245.484751,2.20194025 245.849699,3.2309756 245.849699,4.51452282 L245.849699,43.4854772 C245.849699,44.7690244 245.473692,45.8091246 244.721666,46.6058091 C243.969639,47.4024936 242.996443,47.8008299 241.802049,47.8008299 C240.38647,47.8008299 239.302683,47.2918446 238.550657,46.2738589 L214.331107,14.7385892 L214.331107,43.4854772 C214.331107,44.7690244 213.977217,45.8091246 213.269428,46.6058091 C212.561638,47.4024936 211.588442,47.8008299 210.349811,47.8008299 C209.111179,47.8008299 208.137983,47.4024936 207.430194,46.6058091 C206.722404,45.8091246 206.368515,44.7690244 206.368515,43.4854772 L206.368515,4.51452282 C206.368515,3.2309756 206.744522,2.20194025 207.496549,1.42738589 C208.248575,0.652831535 209.243889,0.265560166 210.482521,0.265560166 C211.853863,0.265560166 212.915531,0.774545394 213.667557,1.79253112 L237.820753,33.1950207 L237.820753,4.51452282 C237.820753,3.2309756 238.185701,2.20194025 238.915609,1.42738589 C239.645517,0.652831535 240.607654,0.265560166 241.802049,0.265560166 Z M276.771098,48 C272.214703,48 268.266624,47.0262891 264.926742,45.0788382 C261.586861,43.1313872 259.010103,40.3430334 257.196393,36.7136929 C255.382682,33.0843525 254.475841,28.8354324 254.475841,23.966805 C254.475841,19.0981776 255.371623,14.8603223 257.163215,11.253112 C258.954807,7.64590174 261.531565,4.86861278 264.893565,2.92116183 C268.255565,0.973710871 272.214703,0 276.771098,0 C281.327493,0 285.275572,0.973710871 288.615453,2.92116183 C291.955335,4.86861278 294.521033,7.64590174 296.312625,11.253112 C298.104217,14.8603223 299,19.0981776 299,23.966805 C299,28.8354324 298.093158,33.0843525 296.279448,36.7136929 C294.465737,40.3430334 291.88898,43.1313872 288.549098,45.0788382 C285.209217,47.0262891 281.283256,48 276.771098,48 Z M276.771098,41.1618257 C281.062071,41.1618257 284.412962,39.6791296 286.82387,36.7136929 C289.234778,33.7482563 290.440214,29.4993361 290.440214,23.966805 C290.440214,18.4342739 289.234778,14.1964186 286.82387,11.253112 C284.412962,8.30980548 281.062071,6.83817427 276.771098,6.83817427 C272.435887,6.83817427 269.062879,8.30980548 266.651971,11.253112 C264.241063,14.1964186 263.035627,18.4342739 263.035627,23.966805 C263.035627,29.4993361 264.241063,33.7482563 266.651971,36.7136929 C269.062879,39.6791296 272.435887,41.1618257 276.771098,41.1618257 Z"
			fill="#FFFFFF"></path>
		<path
			d="M75.3310817,8 L50.6689183,8 C48.6426307,8 47,6.43299662 47,4.5 C47,2.56700338 48.6426307,1 50.6689183,1 L75.3310817,1 C77.3573693,1 79,2.56700338 79,4.5 C79,6.43299662 77.3573693,8 75.3310817,8 Z"
			fill="#FFFFFF"></path>
		<path
			d="m50.50879,28l-0.01758,0c-1.92814,0 -3.49121,-1.567 -3.49121,-3.5c0,-1.933 1.56307,-3.5 3.49121,-3.5l0.01758,0c1.92814,0 3.49121,1.567 3.49121,3.5c0,1.933 -1.56307,3.5 -3.49121,3.5z"
			fill="#018CE8"></path>
		<path
			d="M62.4906712,28 C60.5628268,28 59,26.4329966 59,24.5 C59,22.5670034 60.5628268,21 62.4906712,21 L75.5093288,21 C77.4371732,21 79,22.5670034 79,24.5 C79,26.4329966 77.4371732,28 75.5093288,28 L62.4906712,28 Z"
			fill="#FFFFFF"></path>
		<path
			d="M75.3310817,48 L50.6689183,48 C48.6426307,48 47,46.4329966 47,44.5 C47,42.5670034 48.6426307,41 50.6689183,41 L75.3310817,41 C77.3573693,41 79,42.5670034 79,44.5 C79,46.4329966 77.3573693,48 75.3310817,48 Z"
			fill="#FFFFFF"></path>
	</g>
</svg>
