<svg width="73" height="73" viewBox="0 0 73 73" fill="none" xmlns="http://www.w3.org/2000/svg">
	<g clip-path="url(#clip0)">
		<path fill-rule="evenodd" clip-rule="evenodd" d="M7.80306 15.036C7.35147 15.6409 7.02351 16.3289 6.8379 17.0606C6.6523 17.7923 6.61269 18.5534 6.72134 19.3004C6.83 20.0474 7.08478 20.7657 7.47114 21.4143C7.8575 22.0628 8.36786 22.6288 8.97306 23.08C9.57806 23.5316 10.2661 23.8596 10.9979 24.0454C11.7296 24.2311 12.4908 24.2708 13.238 24.1624C13.9851 24.0539 14.7036 23.7994 15.3523 23.4132C16.0011 23.0271 16.5674 22.517 17.0191 21.912C17.9294 20.6893 18.3174 19.1555 18.0981 17.647C17.8787 16.1386 17.0699 14.7788 15.8491 13.866C15.2441 13.4137 14.5558 13.0851 13.8237 12.8991C13.0916 12.713 12.3299 12.6732 11.5824 12.7819C10.8349 12.8906 10.1161 13.1456 9.46726 13.5324C8.81841 13.9192 8.2522 14.4301 7.80106 15.036H7.80306ZM21.6891 25.396C15.5691 33.596 17.2561 45.196 25.4541 51.312C33.6501 57.427 45.2541 55.742 51.3691 47.545C57.4871 39.349 55.7991 27.745 47.6021 21.628C44.4099 19.2388 40.5293 17.9487 36.5421 17.951C30.8981 17.951 25.3221 20.526 21.6881 25.399L21.6891 25.396ZM31.0001 43.878C26.9101 40.825 26.0681 35.034 29.1221 30.945C32.1721 26.855 37.9621 26.013 42.0521 29.065C43.025 29.7905 43.8455 30.7006 44.4666 31.7433C45.0877 32.786 45.4973 33.9409 45.6719 35.142C45.8464 36.343 45.7827 37.5667 45.4841 38.7431C45.1856 39.9195 44.6582 41.0255 43.9321 41.998C43.0718 43.1525 41.9534 44.0897 40.6662 44.7348C39.379 45.3798 37.9588 45.7148 36.5191 45.713C34.5991 45.713 32.6591 45.115 30.9991 43.878H31.0001ZM5.92206 35.11C4.44222 35.3622 3.1196 36.1829 2.23659 37.3969C1.35358 38.6109 0.980153 40.122 1.19605 41.6075C1.41195 43.0931 2.20005 44.4354 3.3921 45.3478C4.58414 46.2602 6.08566 46.6705 7.57606 46.491C8.32315 46.3824 9.04153 46.1277 9.69019 45.7415C10.3389 45.3552 10.9051 44.845 11.3566 44.24C11.808 43.6349 12.1359 42.9468 12.3215 42.215C12.507 41.4833 12.5467 40.7221 12.4381 39.975C12.3295 39.2279 12.0748 38.5095 11.6885 37.8609C11.3023 37.2122 10.7921 36.646 10.187 36.1945C9.58194 35.743 8.89388 35.4151 8.16209 35.2296C7.43031 35.044 6.66915 35.0044 5.92206 35.113V35.11ZM13.9251 57.152C13.4734 57.7571 13.1454 58.4452 12.9598 59.1771C12.7741 59.9089 12.7345 60.6702 12.8432 61.4174C12.9518 62.1646 13.2066 62.883 13.593 63.5317C13.9794 64.1804 14.4898 64.7466 15.0951 65.198C16.3177 66.1092 17.8522 66.4976 19.3612 66.2778C20.8701 66.058 22.2301 65.2481 23.1421 64.026C23.7798 63.1717 24.1674 62.1568 24.2614 61.0949C24.3555 60.033 24.1522 58.9658 23.6745 58.0127C23.1968 57.0596 22.4634 56.2582 21.5563 55.6981C20.6492 55.138 19.6042 54.8412 18.5381 54.841C16.7851 54.841 15.0541 55.641 13.9251 57.154V57.152ZM40.0331 60.56C39.2859 60.6686 38.5676 60.9234 37.9189 61.3097C37.2703 61.696 36.7042 62.2064 36.2528 62.8116C35.8015 63.4168 35.4739 64.105 35.2886 64.8369C35.1033 65.5687 35.0641 66.33 35.1731 67.077C35.2812 67.8243 35.5356 68.543 35.9217 69.1919C36.3078 69.8408 36.818 70.4072 37.4232 70.8588C38.0283 71.3103 38.7166 71.6382 39.4486 71.8235C40.1806 72.0089 40.9419 72.0481 41.6891 71.939C43.1973 71.7179 44.5562 70.9074 45.4674 69.6853C46.3785 68.4633 46.7676 66.9296 46.5491 65.421C46.3287 63.9122 45.5184 62.5526 44.2963 61.6408C43.0742 60.729 41.5401 60.3395 40.0311 60.558L40.0331 60.56ZM31.1281 0.14C27.5451 0.674 25.1251 2.593 24.8611 2.81L23.8491 3.642L24.0421 4.939L24.9761 11.215L27.5311 12.655L26.3311 4.599C26.3311 4.599 28.4171 2.884 31.4711 2.429C32.0211 2.349 32.5511 2.314 33.0531 2.314C35.3391 2.314 37.0171 3.007 37.0171 3.007L38.2151 11.067C41.2081 11.265 44.1871 11.987 47.0071 13.263L51.8551 6.721C51.8551 6.721 54.5421 6.983 57.0221 8.821C59.5021 10.659 60.5361 13.151 60.5361 13.151L55.6881 19.694C57.6951 21.9834 59.2724 24.6163 60.3441 27.466L68.4041 26.27C68.4041 26.27 70.1211 28.356 70.5741 31.41C71.0281 34.46 69.9941 36.957 69.9941 36.957L61.9371 38.155C61.7397 41.1941 60.9951 44.1726 59.7391 46.947L66.2821 51.797C66.2821 51.797 66.0201 54.481 64.1821 56.963C62.3421 59.443 59.8521 60.473 59.8521 60.473L53.3101 55.625L53.3771 58.558L58.4721 62.334L59.5271 63.116L60.7371 62.612C61.0531 62.485 63.8851 61.252 66.0421 58.342C68.2001 55.429 68.5541 52.362 68.5871 52.022L68.715 50.716L67.6621 49.936L62.5671 46.161C63.2869 44.2297 63.788 42.2239 64.0611 40.181L70.3351 39.247L71.6311 39.057L72.1341 37.843C72.2641 37.53 73.3941 34.656 72.8621 31.073C72.3321 27.487 70.4121 25.067 70.1921 24.803L69.3621 23.791L68.0651 23.984L61.7901 24.917C60.9357 23.0413 59.8734 21.2675 58.6231 19.629L62.4001 14.536L63.1781 13.484L62.6781 12.272C62.5481 11.958 61.3141 9.122 58.4061 6.967C55.4931 4.809 52.4261 4.455 52.0861 4.421L50.7811 4.295L50.0011 5.348L46.2241 10.442C44.2941 9.722 42.2941 9.222 40.2441 8.95L39.3121 2.675L39.1201 1.379L37.9001 0.87C37.6871 0.783 35.7231 0 33.0551 0C32.4051 0 31.7551 0.047 31.1291 0.14H31.1281Z" fill="white"/>
	</g>
	<defs>
		<clipPath id="clip0">
			<rect width="73" height="73" fill="white"/>
		</clipPath>
	</defs>
</svg>
